# AST/ASF file generated using VICON BodyLanguage
# -----------------------------------------------
:version 1.10
:name VICON
:units
  mass 1.0
  length 0.45
  angle deg
:documentation
   .ast/.asf automatically generated from VICON data using
   VICON BodyBuilder and BodyLanguage model FoxedUp or BRILLIANT.MOD
:root
   order TX TY TZ RX RY RZ
   axis XYZ
   position 0 0 0  
   orientation 0 0 0 
:bonedata
  begin
     id 1 
     name lhipjoint
     direction 0.661853 -0.702389 0.261917 
     length 2.64193 
     axis 0 0 0  XYZ
  end
  begin
     id 2 
     name lfemur
     direction 0.34202 -0.939693 0  
     length 7.01722  
     axis 0 0 20  XYZ
    dof rx ry rz
    limits (-160.0 20.0)
           (-70.0 70.0)
           (-60.0 70.0)
  end
  begin
     id 3 
     name ltibia
     direction 0.34202 -0.939693 0   
     length 8.25008   
     axis 0 0 20   XYZ
    dof rx
    limits (-10.0 170.0)
  end
  begin
     id 4 
     name lfoot
     direction 0.0709916 -0.195048 0.978221   
     length 2.31941   
     axis -90 7.62852e-016 20   XYZ
    dof rx rz
    limits (-45.0 90.0)
           (-70.0 20.0)
  end
  begin
     id 5 
     name ltoes
     direction 1.53586e-011 -4.22017e-011 1   
     length 1.16486   
     axis -90 7.62852e-016 20   XYZ
    dof rx
    limits (-90.0 20.0)
  end
  begin
     id 6 
     name rhipjoint
     direction -0.638185 -0.721362 0.268992   
     length 2.57244  
     axis 0 0 0  XYZ 
  end
  begin
     id 7 
     name rfemur
     direction -0.34202 -0.939693 0   
     length 7.07017   
     axis 0 0 -20   XYZ
    dof rx ry rz
    limits (-160.0 20.0)
           (-70.0 70.0)
           (-70.0 60.0)
  end
  begin
     id 8 
     name rtibia
     direction -0.34202 -0.939693 0   
     length 8.20386   
     axis 0 0 -20   XYZ
    dof rx
    limits (-10.0 170.0)
 end
 begin
     id 9 
     name rfoot
     direction -0.0822429 -0.225961 0.970658   
     length 2.32215  
     axis -90 -7.62852e-016 -20   XYZ
    dof rx rz
    limits (-45.0 90.0)
           (-20.0 70.0)
  end
  begin
     id 10 
     name rtoes
     direction -1.53597e-011 -4.21689e-011 1   
     length 1.16333   
     axis -90 -7.62852e-016 -20   XYZ
    dof rx
    limits (-90.0 20.0)
  end
  begin
     id 11 
     name lowerback
     direction -0.0131557 0.998589 -0.0514484   
     length 2.14993   
     axis 0 0 0   XYZ
    dof rx ry rz
    limits (-20.0 45.0)
           (-30.0 30.0)
           (-30.0 30.0)
  end
  begin
     id 12 
     name upperback
     direction -0.000776481 0.999993 0.00352685   
     length 2.15301   
     axis 0 0 0   XYZ
    dof rx ry rz
    limits (-20.0 45.0)
           (-30.0 30.0)
           (-30.0 30.0)
  end
  begin
     id 13 
     name thorax
     direction 0.00438186 0.999609 0.0276143   
     length 2.15424   
     axis 0 0 0   XYZ
    dof rx ry rz
    limits (-20.0 45.0)
           (-30.0 30.0)
           (-30.0 30.0)
  end
  begin
     id 14 
     name lowerneck
     direction -0.0488006 0.998094 0.0377807   
     length 1.90481   
     axis 0 0 0   XYZ
    dof rx ry rz
    limits (-20.0 45.0)
           (-30.0 30.0)
           (-30.0 30.0)
  end
  begin
     id 15 
     name upperneck
     direction 0.0443769 0.990702 -0.12861   
     length 1.91305   
     axis 0 0 0   XYZ
    dof rx ry rz
    limits (-20.0 45.0)
           (-30.0 30.0)
           (-30.0 30.0)
  end
  begin
     id 16
     name head
     direction 0.0165599 0.998647 -0.0492982  
     length 1.92369  
     axis 0 0 0   XYZ
    dof rx ry rz
    limits (-20.0 45.0)
           (-30.0 30.0)
           (-30.0 30.0)
  end
  begin
     id 17 
     name lclavicle
     direction 0.911936 0.410197 -0.0105506  
     length 3.52622  
     axis 0 0 0   XYZ
    dof ry rz
    limits (-20.0 10.0)
           (0.0 20.0)
  end
  begin
     id 18 
     name lhumerus
     direction 1 -4.48974e-011 -2.48591e-028   
     length 5.47651   
     axis 180 -30 -90   XYZ
    dof rx ry rz
    limits (-60.0 90.0)
           (-90.0 90.0)
           (-90.0 90.0)
  end
  begin
     id 19
     name lradius
     direction 1 -4.48938e-011 -4.40099e-027   
     length 3.09058   
     axis 180 -30 -90   XYZ
    dof rx
    limits (-10.0 170.0)
  end
  begin
     id 20
     name lwrist
     direction 1 -4.49042e-011 -2.99852e-027   
     length 1.54529   
     axis 1.95339e-015 90 90   XYZ
    dof ry
    limits (-180.0 0.0)
 end
  begin
     id 21 
     name lhand
     direction 1 -4.48815e-011 -5.98193e-027   
     length 0.771611   
     axis 3.82337e-015 90 90   XYZ
    dof rx rz
    limits (-90.0 90.0)
           (-45.0 45.0)
  end
  begin
     id 22 
     name lfingers
     direction 1 -4.49034e-011 -1.1993e-026   
     length 0.622093   
     axis 7.64668e-015 90 90   XYZ
    dof rx
    limits (0.0 90.0)
  end
  begin
     id 23
     name lthumb
     direction 0.707107 -6.34867e-011 0.707107   
     length 0.893204   
     axis -90 45 -1.62303e-014   XYZ
    dof rx rz
    limits (-45.0 45.0)
           (-45.0 45.0)
  end
  begin
     id 24 
     name rclavicle
     direction -0.93442 0.355634 -0.0195692   
     length 3.62463  
     axis 0 0 0   XYZ 
    dof ry rz
    limits (-10.0 20.0)
           (-20.0 0.0)
  end
  begin
     id 25 
     name rhumerus
     direction -1 -4.48957e-011 -1.19147e-027  
     length 5.14182   
     axis 180 30 90   XYZ
    dof rx ry rz
    limits (-90.0 60.0)
           (-90.0 90.0)
           (-90.0 90.0)
  end
  begin
     id 26 
     name rradius
     direction -1 -4.48952e-011 -3.81062e-027   
     length 3.35565   
     axis 180 30 90   XYZ
    dof rx
    limits (-10.0 170.0)
  end
  begin
     id 27 
     name rwrist
     direction -1 -4.48973e-011 -2.99621e-027   
     length 1.67782   
     axis 1.95339e-015 -90 -90   XYZ
    dof ry
    limits (-180.0 0.0)
  end
  begin
     id 28
     name rhand
     direction -1 -4.48895e-011 -5.98727e-027   
     length 0.801042   
     axis 3.82337e-015 -90 -90   XYZ
    dof rx rz
    limits (-90.0 90.0)
           (-45.0 45.0)
  end
  begin
     id 29
     name rfingers
     direction -1 -4.49065e-011 -1.19972e-026   
     length 0.645821   
     axis 7.64668e-015 -90 -90   XYZ
    dof rx
    limits (0.0 90.0)
  end
  begin
     id 30
     name rthumb
     direction -0.707107 -6.34957e-011 0.707107   
     length 0.927273   
     axis -90 -45 1.62303e-014   XYZ
    dof rx rz
    limits (-45.0 45.0)
           (-45.0 45.0)
  end
:hierarchy
  begin
    root lhipjoint rhipjoint lowerback
    lhipjoint lfemur
    lfemur ltibia
    ltibia lfoot
    lfoot ltoes
    rhipjoint rfemur
    rfemur rtibia
    rtibia rfoot
    rfoot rtoes
    lowerback upperback
    upperback thorax
    thorax lowerneck lclavicle rclavicle
    lowerneck upperneck
    upperneck head
    lclavicle lhumerus
    lhumerus lradius
    lradius lwrist
    lwrist lhand lthumb
    lhand lfingers
    rclavicle rhumerus
    rhumerus rradius
    rradius rwrist
    rwrist rhand rthumb
    rhand rfingers
  end

#!OML:ASF E:\Style4\Style4.ASF
:FULLY-SPECIFIED
:DEGREES
692
root 0.511286 16.765 -2.00622 4.41386 -1.09634 3.38584
lowerback 15.8247 2.23557 -2.41298
upperback 11.563 2.64256 -0.0287855
thorax 3.35425 1.18762 0.991612
lowerneck -1.95832 -4.48168 -5.0572
upperneck -20.1031 -5.32518 6.43663
head -5.3939 -2.68818 3.07845
rclavicle 3.65764e-014 -2.0276e-014
rhumerus 50.2223 -1.67242 -6.91329
rradius 101.775
rwrist -64.7615
rhand -30.8233 33.6377
rfingers 7.12502
rthumb -4.11252 3.69765
lclavicle 3.65764e-014 -2.0276e-014
lhumerus 50.584 -0.748831 9.62056
lradius 112.403
lwrist 59.1378
lhand -27.0967 21.1864
lfingers 7.12502
lthumb -0.513486 51.1656
rfemur -35.6805 -3.61196 13.2813
rtibia 55.4814
rfoot -23.2193 -9.41436
rtoes -15.4747
lfemur -34.9253 5.413 -24.5461
ltibia 53.0045
lfoot -23.1086 4.8603
ltoes -7.88715
693
root 0.501654 16.7924 -1.97805 4.41633 -1.03343 3.35174
lowerback 15.5763 2.24778 -2.39967
upperback 11.3707 2.66641 -0.0467053
thorax 3.27382 1.20348 0.966774
lowerneck -2.02982 -4.52232 -4.95463
upperneck -20.2759 -5.37614 6.39206
head -5.43783 -2.71559 3.05198
rclavicle 1.39149e-014 -6.75868e-015
rhumerus 50.599 -2.74173 -7.47361
rradius 101.556
rwrist -64.3746
rhand -30.8987 34.0811
rfingers 7.12502
rthumb -4.18528 4.14252
lclavicle 1.39149e-014 -6.75868e-015
lhumerus 50.8968 0.151864 10.4654
lradius 112.212
lwrist 59.1766
lhand -27.6473 21.3939
lfingers 7.12502
lthumb -1.04531 51.3711
rfemur -35.3131 -3.55335 13.3424
rtibia 55.068
rfoot -23.202 -9.52146
rtoes -15.6106
lfemur -34.569 5.33929 -24.455
ltibia 52.5659
lfoot -22.966 4.88189
ltoes -8.01516
694
root 0.492196 16.8194 -1.95139 4.40017 -0.9594 3.32037
lowerback 15.3549 2.24909 -2.42416
upperback 11.1742 2.67048 -0.0366015
thorax 3.17341 1.2064 0.99398
lowerneck -2.16733 -4.56483 -4.96439
upperneck -20.3396 -5.42452 6.40041
head -5.43146 -2.73676 3.05548
rclavicle -1.19271e-014 7.55382e-015
rhumerus 51.0137 -3.83458 -7.99379
rradius 101.323
rwrist -63.8953
rhand -31.0793 34.1103
rfingers 7.12502
rthumb -4.35967 4.1752
lclavicle -1.19271e-014 7.55382e-015
lhumerus 51.4825 1.20266 11.2925
lradius 111.769
lwrist 59.3627
lhand -28.1731 21.699
lfingers 7.12502
lthumb -1.55307 51.6731
rfemur -34.8987 -3.51713 13.4118
rtibia 54.6077
rfoot -23.0876 -9.69413
rtoes -15.9119
lfemur -34.1877 5.25506 -24.3651
ltibia 52.1025
lfoot -22.8462 4.9442
ltoes -8.12807
695
root 0.484622 16.8495 -1.92481 4.37588 -0.853352 3.19369
lowerback 15.0747 2.22413 -2.31963
upperback 11.0097 2.65691 -0.00527006
thorax 3.14359 1.206 0.976351
lowerneck -2.11728 -4.57198 -5.01004
upperneck -20.57 -5.42777 6.42379
head -5.50973 -2.73551 3.07878
rclavicle -1.51076e-014 7.95139e-016
rhumerus 51.5232 -4.97614 -8.58053
rradius 100.98
rwrist -63.3497
rhand -31.0994 34.247
rfingers 7.12502
rthumb -4.37912 4.31226
lclavicle -1.51076e-014 7.95139e-016
lhumerus 52.1379 2.23666 12.1232
lradius 111.067
lwrist 59.3186
lhand -28.2881 21.5054
lfingers 7.12502
lthumb -1.66415 51.4786
rfemur -34.4311 -3.48964 13.5796
rtibia 54.0863
rfoot -23.0035 -9.85977
rtoes -16.0633
lfemur -33.7942 5.14262 -24.1669
ltibia 51.6267
lfoot -22.7331 4.94997
ltoes -7.85929
696
root 0.479579 16.8812 -1.89584 4.34443 -0.7879 3.12663
lowerback 15.1735 2.1689 -2.24735
upperback 10.5889 2.5841 -0.044416
thorax 2.64161 1.18284 0.890951
lowerneck -1.958 -4.54464 -5.09644
upperneck -20.6246 -5.38116 6.51996
head -5.54986 -2.71316 3.12811
rclavicle -3.18055e-014 5.1684e-015
rhumerus 52.117 -5.80273 -9.24067
rradius 100.576
rwrist -62.7216
rhand -31.1421 34.5967
rfingers 7.12502
rthumb -4.42031 4.66281
lclavicle -3.18055e-014 5.1684e-015
lhumerus 52.4148 2.85386 12.8284
lradius 110.52
lwrist 59.1058
lhand -28.4666 21.0492
lfingers 7.12502
lthumb -1.83653 51.0211
rfemur -33.9515 -3.45786 13.6654
rtibia 53.5393
rfoot -22.9379 -9.9384
rtoes -16.0163
lfemur -33.3434 5.02625 -24.0528
ltibia 51.1032
lfoot -22.6515 5.01668
ltoes -7.78316
697
root 0.473022 16.9137 -1.86654 4.31465 -0.731861 3.08766
lowerback 15.0298 2.1678 -2.21675
upperback 10.3425 2.58774 -0.0597875
thorax 2.45205 1.19036 0.856786
lowerneck -2.08449 -4.60938 -5.17305
upperneck -20.6103 -5.45531 6.58442
head -5.51504 -2.74608 3.15898
rclavicle 1.92821e-014 -1.15295e-014
rhumerus 52.545 -6.86415 -9.7607
rradius 100.107
rwrist -61.9808
rhand -31.1078 34.9348
rfingers 7.12502
rthumb -4.38725 5.00021
lclavicle 1.92821e-014 -1.15295e-014
lhumerus 52.8707 3.79143 13.5636
lradius 110.214
lwrist 59.2563
lhand -29.1339 21.3396
lfingers 7.12502
lthumb -2.48102 51.3049
rfemur -33.4707 -3.41652 13.7148
rtibia 52.9696
rfoot -22.8514 -9.93993
rtoes -15.9282
lfemur -32.8626 4.89702 -23.9587
ltibia 50.5515
lfoot -22.5666 5.09366
ltoes -7.65516
698
root 0.463013 16.9445 -1.83793 4.33385 -0.646121 3.15073
lowerback 14.8079 2.16469 -2.30944
upperback 10.091 2.57749 -0.0983114
thorax 2.29594 1.18535 0.87189
lowerneck -1.95922 -4.5939 -5.0779
upperneck -20.8843 -5.44439 6.48864
head -5.62952 -2.74055 3.12478
rclavicle 2.40529e-014 -1.51076e-014
rhumerus 53.0275 -7.96439 -10.3082
rradius 99.6296
rwrist -61.3154
rhand -31.0467 35.1024
rfingers 7.12502
rthumb -4.32828 5.16659
lclavicle 2.40529e-014 -1.51076e-014
lhumerus 53.389 4.70831 14.237
lradius 109.881
lwrist 59.2006
lhand -30.0483 22.12
lfingers 7.12502
lthumb -3.3641 52.0732
rfemur -33.0469 -3.42121 13.6646
rtibia 52.4013
rfoot -22.8074 -9.88099
rtoes -15.2917
lfemur -32.4236 4.77611 -23.9692
ltibia 49.9673
lfoot -22.461 5.09458
ltoes -7.44706
